:SAMPLES-PER-SECOND 30
:FULLY-SPECIFIED
:DEGREES
577
root  -16.8048 33.9575 8.16866 -60.4654 -68.6887 55.7314
RightUpLeg  -4.18392 -8.65344 -56.8825
RightLeg  16.5596 -19.0647 -6.42887
RightFoot  18.4754 -8.14191 30.4226
RightToes  -1.16417e-010 0 -3.6325e-017
Spine  31.6874 4.21015 29.2773
Spine1  -9.63428 13.4636 -17.935
HEad  1.96479 -27.3329 -20.6803
LeftShoulder1  0.429988 0.366144 -5.95261
LeftArm  -1.09095 25.3741 -37.3457
LeftForeArm  21.8558 -38.7845 -7.63156
LeftHand  1.50845 9.0933 44.1027
RightShoulder  0.480035 -0.0126734 6.05544
RightArm  -36.6558 -20.9037 -4.84599
RightForeArm  -3.44455 65.7524 26.9366
RightHand  -1.55786 0.13383 -32.1462
LeftUpLeg  -24.6446 25.4917 -4.45622
LeftLeg  58.0006 -13.3976 -21.3737
LeftFoot  -16.891 -0.619191 -14.7773
LeftToes  6.91183e-011 3.39355e-011 2.1261e-011
578
root  -16.9976 33.7332 8.49762 -60.8566 -69.7747 55.1019
RightUpLeg  -5.18833 -8.35994 -56.0787
RightLeg  19.7236 -18.0854 -7.22835
RightFoot  17.4174 -7.41368 28.8473
RightToes  -1.16417e-010 0 -3.6325e-017
Spine  31.4691 4.3024 28.2675
Spine1  -9.04804 13.5174 -20.0381
HEad  0.7723 -28.8752 -17.9506
LeftShoulder1  0.418212 0.751578 -7.61578
LeftArm  -6.15099 26.7348 -38.3844
LeftForeArm  16.4055 -39.8191 -8.28997
LeftHand  1.43681 9.00433 43.1566
RightShoulder  0.602434 0.525283 7.40688
RightArm  -29.4304 -22.4345 -5.11877
RightForeArm  7.49704 69.2685 31.6963
RightHand  -1.52079 -0.158483 -33.0797
LeftUpLeg  -22.8562 22.3098 -3.70974
LeftLeg  57.869 -11.5173 -18.4535
LeftFoot  -22.4938 -1.32802 -14.8651
LeftToes  6.91183e-011 3.39355e-011 2.1261e-011
579
root  -17.1679 33.4377 8.51721 -59.3299 -71.2911 52.7108
RightUpLeg  -6.68335 -8.37232 -54.5156
RightLeg  24.0787 -16.6949 -8.18616
RightFoot  15.8946 -6.8918 28.3954
RightToes  -1.16417e-010 0 -3.6325e-017
Spine  31.0092 3.99625 26.0061
Spine1  -8.56147 12.6185 -21.0728
HEad  -1.40211 -28.5942 -14.7345
LeftShoulder1  0.453684 0.845808 -9.68803
LeftArm  -9.43342 26.1519 -39.4828
LeftForeArm  7.75897 -38.1936 -8.34638
LeftHand  1.28581 8.78205 41.3732
RightShoulder  0.743767 1.02683 9.0633
RightArm  -22.9583 -23.2254 -4.18657
RightForeArm  20.0763 72.5141 37.9104
RightHand  -1.42463 -0.587059 -33.7118
LeftUpLeg  -22.2373 18.8439 -2.07975
LeftLeg  58.6513 -9.31865 -15.4902
LeftFoot  -26.7193 -1.99331 -15.8643
LeftToes  6.91183e-011 3.39355e-011 2.1261e-011
580
root  -17.32 33.1165 8.26932 -55.058 -72.7593 47.3697
RightUpLeg  -7.69205 -9.49154 -52.7722
RightLeg  28.7539 -14.0705 -8.41698
RightFoot  14.3824 -6.88844 29.9956
RightToes  -1.16417e-010 0 -3.6325e-017
Spine  30.4859 3.32384 23.1002
Spine1  -7.92028 11.0817 -21.3934
HEad  -3.93359 -27.5954 -11.0414
LeftShoulder1  0.576024 0.455359 -11.7001
LeftArm  -10.9769 22.7601 -40.5749
LeftForeArm  -3.44837 -34.3376 -7.87468
LeftHand  1.18013 8.68164 39.363
RightShoulder  0.847038 1.26869 10.562
RightArm  -17.4934 -25.1077 -2.25408
RightForeArm  33.3117 75.2049 45.5561
RightHand  -1.30162 -1.02312 -33.865
LeftUpLeg  -22.4282 15.1665 0.514477
LeftLeg  60.5458 -7.42155 -13.3481
LeftFoot  -28.5935 -2.41417 -16.9484
LeftToes  6.91183e-011 3.39355e-011 2.1261e-011
581
root  -17.4854 32.8295 7.79995 -50.5365 -74.1829 41.3884
RightUpLeg  -8.55733 -11.0518 -51.1565
RightLeg  33.4789 -9.91734 -7.20401
RightFoot  12.8326 -6.95771 32.1298
RightToes  -1.16417e-010 0 -3.6325e-017
Spine  30.1078 2.64271 19.4063
Spine1  -6.43973 9.44885 -21.0571
HEad  -7.05709 -26.1471 -6.38246
LeftShoulder1  0.804419 -0.509279 -13.0168
LeftArm  -13.1029 17.9341 -42.0826
LeftForeArm  -14.1265 -30.6725 -7.43148
LeftHand  1.15301 8.70523 38.3077
RightShoulder  0.879849 1.21424 11.5626
RightArm  -12.75 -27.8289 0.683269
RightForeArm  42.4637 76.487 50.2227
RightHand  -1.18344 -1.38796 -33.6116
LeftUpLeg  -22.2423 11.9747 3.76493
LeftLeg  62.4391 -6.11292 -11.8949
LeftFoot  -29.012 -2.57398 -17.5605
LeftToes  6.91183e-011 3.39355e-011 2.1261e-011
582
root  -17.6552 32.6515 7.12789 -49.3156 -76.1649 38.4541
RightUpLeg  -10.2648 -12.3437 -49.368
RightLeg  38.3549 -5.51069 -4.91513
RightFoot  11.7466 -6.81157 32.9027
RightToes  -1.16417e-010 0 -3.6325e-017
Spine  30.141 2.33727 14.5576
Spine1  -4.31438 8.04975 -20.1692
HEad  -10.7842 -23.4472 -0.600766
LeftShoulder1  1.04224 -1.69096 -13.0596
LeftArm  -17.9002 13.3799 -44.2324
LeftForeArm  -21.4241 -28.9995 -7.33732
LeftHand  1.07114 8.50941 37.8538
RightShoulder  0.884404 1.11277 12.1275
RightArm  -7.81427 -29.8188 4.12661
RightForeArm  43.1916 75.9811 46.6495
RightHand  -1.14181 -1.47762 -33.1996
LeftUpLeg  -20.7267 10.0385 7.29975
LeftLeg  63.0285 -5.21578 -10.3699
LeftFoot  -29.1411 -2.69701 -18.203
LeftToes  6.91183e-011 3.39355e-011 2.1261e-011
583
root  -17.7849 32.6503 6.28922 -51.6024 -79.1046 39.136
RightUpLeg  -13.0785 -13.4772 -46.7208
RightLeg  43.1921 -2.22669 -2.53487
RightFoot  12.2619 -6.85731 32.4242
RightToes  -1.16417e-010 0 -3.6325e-017
Spine  30.5535 2.31882 9.14376
Spine1  -2.50108 6.77681 -19.0279
HEad  -14.3223 -18.8113 5.59219
LeftShoulder1  1.16491 -2.55142 -12.1288
LeftArm  -24.707 9.41871 -46.1654
LeftForeArm  -26.0389 -29.2572 -7.59829
LeftHand  0.849252 7.94133 36.7353
RightShoulder  0.888678 1.12237 12.1888
RightArm  -1.7723 -30.4353 7.35568
RightForeArm  39.6019 73.9453 38.0808
RightHand  -1.20394 -1.23344 -32.9576
LeftUpLeg  -18.1775 8.87414 11.1064
LeftLeg  62.0666 -4.38466 -8.27528
LeftFoot  -28.8424 -2.84737 -19.4619
LeftToes  6.91183e-011 3.39355e-011 2.1261e-011
584
root  -17.8817 32.8331 5.36657 -48.5729 -82.8519 35.0564
RightUpLeg  -16.4495 -15.1251 -42.552
RightLeg  47.5533 -0.130285 -0.480266
RightFoot  15.1459 -7.35452 31.0276
RightToes  -1.16417e-010 0 -3.6325e-017
Spine  30.8377 2.08675 4.71356
Spine1  -1.60519 5.40549 -17.8273
HEad  -16.7208 -12.7114 11.0384
LeftShoulder1  1.16366 -2.83118 -11.1645
LeftArm  -32.2247 5.50876 -46.8315
LeftForeArm  -31.2122 -30.5233 -8.13
LeftHand  0.630271 7.40216 34.7819
RightShoulder  0.853212 1.0649 11.5893
RightArm  5.16901 -30.5314 10.0437
RightForeArm  37.6078 71.3157 30.7227
RightHand  -1.26544 -1.02299 -32.972
LeftUpLeg  -15.8008 7.11151 15.5474
LeftLeg  60.2636 -3.28314 -5.58609
LeftFoot  -27.5069 -2.83932 -20.9436
LeftToes  6.91183e-011 3.39355e-011 2.1261e-011
585
root  -18.0189 33.1558 4.39742 -54.2997 -87.6918 40.3897
RightUpLeg  -19.7443 -17.5314 -36.5257
RightLeg  51.0925 1.39898 1.50422
RightFoot  19.7152 -7.70461 27.787
RightToes  -1.16417e-010 0 -3.6325e-017
Spine  30.5298 1.38766 2.21864
Spine1  -1.30018 3.99233 -16.4169
HEad  -17.7967 -6.20205 15.0333
LeftShoulder1  1.0911 -2.70896 -10.2711
LeftArm  -40.5929 1.91572 -46.5701
LeftForeArm  -38.4688 -32.6103 -8.95713
LeftHand  0.614041 7.4522 33.22
RightShoulder  0.758923 0.750304 10.661
RightArm  11.555 -30.8664 12.2242
RightForeArm  37.3444 68.8101 25.8078
RightHand  -1.27057 -1.02935 -33.1462
LeftUpLeg  -13.813 4.72255 21.124
LeftLeg  57.8678 -1.85966 -2.62045
LeftFoot  -25.344 -2.62025 -22.3011
LeftToes  6.91183e-011 3.39355e-011 2.1261e-011
586
root  -18.2429 33.6153 3.28679 72.212 -85.8799 -86.3972
RightUpLeg  -22.224 -19.9969 -28.9786
RightLeg  53.3819 2.79566 3.65519
RightFoot  24.0632 -7.20199 22.8444
RightToes  -1.16417e-010 0 -3.6325e-017
Spine  29.6105 0.663363 0.662198
Spine1  -0.740866 2.72386 -14.0828
HEad  -17.8534 0.373648 17.5128
LeftShoulder1  0.974406 -2.56528 -8.5968
LeftArm  -48.6773 0.280727 -46.4584
LeftForeArm  -44.7537 -36.0814 -10.1885
LeftHand  0.764121 7.9423 33.4317
RightShoulder  0.633553 0.221162 9.73937
RightArm  15.9849 -30.7514 14.5721
RightForeArm  36.4954 65.9814 21.9028
RightHand  -1.31831 -0.93504 -33.6298
LeftUpLeg  -10.6488 2.96379 27.9657
LeftLeg  53.7738 -0.405286 -0.0743252
LeftFoot  -22.654 -2.34322 -24.6869
LeftToes  6.91183e-011 3.39355e-011 2.1261e-011
587
root  -18.5201 34.2531 1.93653 105.537 -80.6326 -120.357
RightUpLeg  -22.9986 -21.7828 -21.0229
RightLeg  53.9116 4.25078 5.85729
RightFoot  27.0645 -6.27159 18.4203
RightToes  -1.16417e-010 0 -3.6325e-017
Spine  28.3488 0.427989 -1.94952
Spine1  0.486046 1.39133 -9.61523
HEad  -16.7965 7.33492 18.7749
LeftShoulder1  0.815407 -2.46368 -5.90761
LeftArm  -53.4334 2.18554 -46.515
LeftForeArm  -44.8798 -40.6918 -11.7548
LeftHand  0.830336 8.02584 35.0471
RightShoulder  0.483742 -0.46535 8.51584
RightArm  18.3162 -28.8681 18.3192
RightForeArm  34.0938 61.9392 18.0332
RightHand  -1.41353 -0.721049 -34.3743
LeftUpLeg  -5.21886 1.40535 35.1473
LeftLeg  46.9736 1.19964 1.82363
LeftFoot  -18.603 -1.77238 -29.3029
LeftToes  6.91183e-011 3.39355e-011 2.1261e-011
588
root  -18.8078 35.0316 0.447265 109.904 -75.4299 -125.124
RightUpLeg  -22.0458 -23.1422 -13.7937
RightLeg  52.5063 6.02969 8.00249
RightFoot  28.9718 -5.75016 16.1411
RightToes  -1.16417e-010 0 -3.6325e-017
Spine  26.779 0.4066 -6.1251
Spine1  1.80167 -0.51955 -2.70616
HEad  -14.0717 14.3992 19.4716
LeftShoulder1  0.620026 -2.11088 -2.93536
LeftArm  -53.5401 7.46858 -46.0079
LeftForeArm  -37.9645 -45.3968 -13.405
LeftHand  0.83806 7.88202 37.0732
RightShoulder  0.30925 -1.34791 6.74668
RightArm  19.499 -25.5873 23.7786
RightForeArm  30.7374 56.63 14.4575
RightHand  -1.39538 -0.83876 -34.7844
LeftUpLeg  0.744246 -2.16822 40.8776
LeftLeg  38.7746 4.61699 4.30041
LeftFoot  -11.8339 -0.0699693 -34.5354
LeftToes  6.91183e-011 3.39355e-011 2.1261e-011
589
root  -19.1244 35.8771 -1.03088 111.559 -71.4741 -125.634
RightUpLeg  -20.5073 -24.6096 -7.53797
RightLeg  49.4273 8.28116 9.8948
RightFoot  29.1682 -5.44901 15.2574
RightToes  -1.16417e-010 0 -3.6325e-017
Spine  24.5041 -0.27193 -10.4852
Spine1  2.00783 -3.06056 4.90331
HEad  -9.54251 20.3993 20.489
LeftShoulder1  0.419628 -1.48904 0.0606326
LeftArm  -49.8147 14.2031 -44.6936
LeftForeArm  -27.5289 -49.5298 -14.913
LeftHand  1.02335 8.24614 39.2624
RightShoulder  0.136184 -2.42243 4.82462
RightArm  19.7008 -23.8265 30.0266
RightForeArm  27.5585 51.5372 11.9441
RightHand  -1.26278 -1.23029 -34.4566
LeftUpLeg  4.40327 -7.5315 44.079
LeftLeg  31.7973 12.1197 8.31353
LeftFoot  -1.87739 3.13453 -36.8264
LeftToes  6.91183e-011 3.39355e-011 2.1261e-011
590
root  -19.5023 36.6599 -2.46352 113.328 -69.2091 -124.298
RightUpLeg  -19.4528 -25.5498 -2.20377
RightLeg  45.3284 10.5686 10.96
RightFoot  25.5101 -4.79152 14.8549
RightToes  -1.16417e-010 0 -3.6325e-017
Spine  21.4008 -1.81443 -13.9766
Spine1  0.618177 -5.59519 10.6255
HEad  -4.27332 24.7537 22.1515
LeftShoulder1  0.243529 -1.04762 3.51114
LeftArm  -43.0998 20.4845 -42.6572
LeftForeArm  -16.1533 -53.0372 -16.2126
LeftHand  1.30075 8.8266 41.323
RightShoulder  -0.0161971 -3.63894 3.17052
RightArm  17.5084 -26.1729 36.327
RightForeArm  25.438 48.7602 10.8764
RightHand  -1.19069 -1.38155 -33.7627
LeftUpLeg  4.98681 -10.3245 45.7083
LeftLeg  27.2811 22.8267 12.5629
LeftFoot  9.55299 6.52941 -34.8794
LeftToes  6.91183e-011 3.39355e-011 2.1261e-011
591
root  -19.8742 37.1919 -3.88988 116.403 -68.5526 -123.731
RightUpLeg  -18.589 -24.3519 1.79634
RightLeg  40.9969 11.5862 10.3586
RightFoot  17.3454 -3.82299 15.3913
RightToes  -1.16417e-010 0 -3.6325e-017
Spine  18.3072 -3.60558 -16.7593
Spine1  -1.46411 -7.64446 13.582
HEad  -0.149644 28.3645 23.6012
LeftShoulder1  0.104472 -1.09952 7.03268
LeftArm  -33.7414 25.9068 -39.7759
LeftForeArm  -2.59127 -56.3438 -17.3512
LeftHand  1.59991 9.31805 44.1285
RightShoulder  -0.143561 -4.89445 2.01263
RightArm  12.3676 -31.3556 42.7091
RightForeArm  23.593 48.7385 11.0256
RightHand  -1.18426 -1.34183 -33.2724
LeftUpLeg  4.23047 -7.77136 46.7505
LeftLeg  23.8281 32.4914 14.8573
LeftFoot  18.3561 8.44034 -31.5049
LeftToes  6.91183e-011 3.39355e-011 2.1261e-011
